# xmcd
#
# Track frame offsets:
#	150
#	12807
#	24954
#	39816
#	52094
#	71679
#	86146
#	102260
#	116716
#	131348
#	145613
#	165177
#	186321
#
# Disc length: 2685 seconds
#
# Revision: 1
# Processed by: cddbd v1.5.1PL0 Copyright (c) Steve Scherf et al.
# Submitted via: EasyCDDAExtractor 7.0.6.1
#
DISCID=a10a7b0d
DTITLE=Jasper Stone - back 40 star
DYEAR=2004
DGENRE=AlternRock
TTITLE0=out the window
TTITLE1=back on the road
TTITLE2=ashes and grounds
TTITLE3=everybody knows
TTITLE4=sunshine hotel
TTITLE5=let the blues play again
TTITLE6=raised to ramble
TTITLE7=trust fund drifter
TTITLE8=late september
TTITLE9=crooked payphone
TTITLE10=maybe i´ll be the one
TTITLE11=morning bus
TTITLE12=always blue
EXTD=
EXTT0=
EXTT1=
EXTT2=
EXTT3=
EXTT4=
EXTT5=
EXTT6=
EXTT7=
EXTT8=
EXTT9=
EXTT10=
EXTT11=
EXTT12=
PLAYORDER=
